<?xml version="1.0" encoding="UTF-8" standalone="no"?>
<svg
   xmlns:dc="http://purl.org/dc/elements/1.1/"
   xmlns:cc="http://creativecommons.org/ns#"
   xmlns:rdf="http://www.w3.org/1999/02/22-rdf-syntax-ns#"
   xmlns:svg="http://www.w3.org/2000/svg"
   xmlns="http://www.w3.org/2000/svg"
   xmlns:sodipodi="http://sodipodi.sourceforge.net/DTD/sodipodi-0.dtd"
   xmlns:inkscape="http://www.inkscape.org/namespaces/inkscape"
   sodipodi:docname="描画.svg"
   inkscape:version="1.0 (4035a4fb49, 2020-05-01)"
   id="svg8"
   version="1.1"
   viewBox="0 0 210 210.00001"
   height="793.70081"
   width="793.70081">
  <defs
     id="defs2" />
  <sodipodi:namedview
     units="px"
     inkscape:window-maximized="0"
     inkscape:window-y="417"
     inkscape:window-x="895"
     inkscape:window-height="1228"
     inkscape:window-width="2249"
     showgrid="false"
     inkscape:document-rotation="0"
     inkscape:current-layer="layer1"
     inkscape:document-units="px"
     inkscape:cy="426.34517"
     inkscape:cx="1778.0746"
     inkscape:zoom="0.35"
     inkscape:pageshadow="2"
     inkscape:pageopacity="0.0"
     borderopacity="1.0"
     bordercolor="#666666"
     pagecolor="#ffffff"
     id="base" />
  <metadata
     id="metadata5">
    <rdf:RDF>
      <cc:Work
         rdf:about="">
        <dc:format>image/svg+xml</dc:format>
        <dc:type
           rdf:resource="http://purl.org/dc/dcmitype/StillImage" />
        <dc:title></dc:title>
      </cc:Work>
    </rdf:RDF>
  </metadata>
  <g
     id="layer1"
     inkscape:groupmode="layer"
     inkscape:label="レイヤー 1">
    <g
       transform="matrix(1.0863413,0,0,1.0863413,0.92736722,-57.809222)"
       fill-rule="evenodd"
       clip-rule="evenodd"
       id="g4064">
      <path
         fill="#ffffff"
         d="M 0,0 H 192.756 V 192.756 H 0 Z"
         id="path4060" />
      <path
         d="m 82.877,67.061 h 25.041 c 7.727,0 14.049,6.321 14.049,14.048 v 30.538 c 0,7.727 -6.322,14.048 -14.049,14.048 H 82.877 c -7.726,0 -14.047,-6.321 -14.047,-14.048 V 81.109 c 0,-7.727 6.321,-14.048 14.047,-14.048 z m -20.97,0.407 -33.543,-0.035 c -5.608,-0.035 -12.959,6.083 -12.953,10.82 v 34.996 c -0.006,4.737 7.345,10.854 12.953,10.821 l 33.543,-0.035 -0.01,-11.204 H 32.29 c -3.772,0 -4.354,-3.441 -4.4,-6.207 l -0.088,-5.306 34.064,0.072 V 90.113 L 27.802,90.185 27.89,84.88 c 0.046,-2.768 0.628,-6.208 4.4,-6.208 h 29.607 z m 81.724,-0.177 31.365,-0.157 v 11.429 h -29.475 c -2.904,0 -5.279,2.324 -5.279,5.167 v 1.095 c 0,2.805 2.314,5.105 5.166,5.165 v 0.001 h 15.085 c 8.752,0 16.852,7.311 16.852,16.438 v 0.939 c 0,9.127 -8.104,16.508 -16.852,16.751 l -31.367,0.156 v -11.428 h 29.477 c 2.902,0 5.279,-2.325 5.279,-5.166 v -1.096 c 0,-2.806 -2.314,-5.105 -5.166,-5.165 v -0.001 h -0.113 l -14.973,-10e-4 c -8.752,0 -15.912,-7.466 -15.912,-16.594 v -0.939 c 10e-4,-9.127 7.165,-16.35 15.913,-16.594 z M 87.763,78.055 h 15.27 c 3.861,0 7.023,3.161 7.023,7.024 v 21.987 c 0,3.863 -3.162,7.023 -7.023,7.023 h -15.27 c -3.863,0 -7.024,-3.16 -7.024,-7.023 V 85.079 c 0,-3.864 3.161,-7.024 7.024,-7.024 z"
         id="path4062" />
    </g>
  </g>
</svg>
