<?xml version="1.0" encoding="UTF-8" standalone="no"?>
<svg
   xmlns:dc="http://purl.org/dc/elements/1.1/"
   xmlns:cc="http://creativecommons.org/ns#"
   xmlns:rdf="http://www.w3.org/1999/02/22-rdf-syntax-ns#"
   xmlns:svg="http://www.w3.org/2000/svg"
   xmlns="http://www.w3.org/2000/svg"
   xmlns:sodipodi="http://sodipodi.sourceforge.net/DTD/sodipodi-0.dtd"
   xmlns:inkscape="http://www.inkscape.org/namespaces/inkscape"
   sodipodi:docname="描画.svg"
   inkscape:version="1.0 (4035a4fb49, 2020-05-01)"
   id="svg8"
   version="1.1"
   viewBox="0 0 210 210.00001"
   height="793.70081"
   width="793.70081">
  <defs
     id="defs2" />
  <sodipodi:namedview
     units="px"
     inkscape:window-maximized="0"
     inkscape:window-y="417"
     inkscape:window-x="895"
     inkscape:window-height="1228"
     inkscape:window-width="2249"
     showgrid="false"
     inkscape:document-rotation="0"
     inkscape:current-layer="layer1"
     inkscape:document-units="px"
     inkscape:cy="262.01843"
     inkscape:cx="280.48368"
     inkscape:zoom="0.35"
     inkscape:pageshadow="2"
     inkscape:pageopacity="0.0"
     borderopacity="1.0"
     bordercolor="#666666"
     pagecolor="#ffffff"
     id="base" />
  <metadata
     id="metadata5">
    <rdf:RDF>
      <cc:Work
         rdf:about="">
        <dc:format>image/svg+xml</dc:format>
        <dc:type
           rdf:resource="http://purl.org/dc/dcmitype/StillImage" />
        <dc:title></dc:title>
      </cc:Work>
    </rdf:RDF>
  </metadata>
  <g
     id="layer1"
     inkscape:groupmode="layer"
     inkscape:label="レイヤー 1">
    <g
       transform="matrix(1.0941849,0,0,1.0941849,0.35707926,-79.399156)"
       fill-rule="evenodd"
       clip-rule="evenodd"
       id="g4089">
      <path
         fill="#ffffff"
         d="M 0,0 H 192.756 V 192.756 H 0 Z"
         id="path4077" />
      <path
         d="m 115.344,87.148 v 21.467 h -6.225 V 87.148 Z m -34.445,16.659 c 0,0.369 -0.094,1.041 -0.407,1.4 -0.313,0.359 -0.608,0.521 -0.985,0.615 -0.34,0.086 -0.742,0.219 -1.723,0.219 -0.981,0 -1.382,-0.133 -1.724,-0.219 -0.376,-0.094 -0.671,-0.256 -0.984,-0.615 -0.313,-0.359 -0.407,-1.031 -0.407,-1.4 L 74.67,87.145 h -6.119 v 15.222 c -0.138,2.684 0.83,4.998 3.632,6.059 0.733,0.277 3.194,0.834 5.599,0.834 2.405,0 4.865,-0.557 5.6,-0.834 2.802,-1.061 3.77,-3.451 3.632,-6.135 V 87.145 h -6.119 z m 13.839,0.15 c 0,0.418 0.063,1.078 0.404,1.418 0.341,0.34 0.731,0.66 1.744,0.66 1.012,0 1.446,-0.32 1.786,-0.66 0.342,-0.34 0.361,-1 0.361,-1.418 L 99.031,87.145 h 6.227 v 15.392 c 0,1.762 -0.266,2.254 -0.588,2.936 -0.578,1.229 -1.455,2.148 -2.971,2.926 -0.934,0.479 -2.557,0.859 -4.809,0.859 -2.152,-0.021 -3.929,-0.424 -4.838,-0.889 -1.515,-0.775 -2.26,-1.668 -2.84,-2.896 -0.218,-0.461 -0.467,-1.436 -0.484,-2.936 l -10e-4,-1.975 h 6.012 z m 24.475,-13.915 v 18.571 h 6.439 v -9.447 h 7.943 v -3.219 h -7.943 v -5.582 h 8.373 v -3.22 h -11.92 c -0.898,0 -1.693,0.057 -2.262,0.625 -0.569,0.568 -0.63,1.307 -0.63,2.272 z M 142.4,87.148 v 21.467 h -6.224 V 87.148 Z m 3.856,18.571 c 0,0.898 0.059,1.695 0.627,2.264 0.568,0.569 1.305,0.631 2.271,0.631 l 10.412,0.002 v -3.221 h -7.084 V 87.148 h -6.227 v 18.571 z m 15.025,2.896 V 87.148 h 6.869 l 3.758,14.168 3.758,-14.168 h 8.586 v 21.467 h -6.01 V 93.587 l -4.08,15.028 h -5.26 l -4.185,-15.028 v 15.028 z M 51.587,90.042 v 18.571 h 6.441 v -9.447 h 7.943 V 95.947 H 58.028 V 90.365 H 66.4 v -3.22 H 54.48 c -0.899,0 -1.694,0.057 -2.262,0.625 -0.568,0.568 -0.631,1.307 -0.631,2.272 z"
         id="path4079" />
      <path
         fill="#cf432a"
         d="m 31.089,98.928 h 3.106 v -9.48 h -3.106 z"
         id="path4081" />
      <path
         d="m 22.571,98.928 a 93.77,93.77 0 0 1 -4.684,0 c -1.178,-0.041 -2.011,-0.943 -1.961,-2.156 l 10e-4,-4.5 h -2.501 v 6.656 H 8.504 V 84.852 c 0,-1.189 0.813,-1.94 1.945,-1.94 h 19.11 l 5.664,4.761 H 13.425 v 1.775 h 5.608 v 6.165 c 0,0.331 0.328,0.698 0.656,0.718 a 8.22,8.22 0 0 0 1.11,0 c 0.327,-0.03 0.655,-0.386 0.655,-0.717 v -6.165 h 3.107 l -0.001,7.326 c 0.056,1.252 -0.845,2.114 -1.989,2.153 z"
         fill="#cf432a"
         id="path4083" />
      <path
         d="m 23.337,103.527 h -9.361 l -3.475,-2.92 h 11.825 c 2.93,0.053 3.945,-1.809 3.945,-3.793 l 10e-4,-7.367 h 3.122 l 0.001,7.974 c 0.045,3.409 -2.272,6.106 -6.058,6.106 z"
         fill="#cf432a"
         id="path4085" />
      <path
         d="m 35.874,88.218 4.825,4.056 v 15.455 c 0,1.217 -0.817,2.115 -2.12,2.115 H 21.512 l -5.518,-4.639 h 19.88 z"
         fill="#cf432a"
         id="path4087" />
    </g>
  </g>
</svg>
