<?xml version="1.0" encoding="UTF-8" standalone="no"?>
<svg
   xmlns:dc="http://purl.org/dc/elements/1.1/"
   xmlns:cc="http://creativecommons.org/ns#"
   xmlns:rdf="http://www.w3.org/1999/02/22-rdf-syntax-ns#"
   xmlns:svg="http://www.w3.org/2000/svg"
   xmlns="http://www.w3.org/2000/svg"
   xmlns:sodipodi="http://sodipodi.sourceforge.net/DTD/sodipodi-0.dtd"
   xmlns:inkscape="http://www.inkscape.org/namespaces/inkscape"
   sodipodi:docname="描画.svg"
   inkscape:version="1.0 (4035a4fb49, 2020-05-01)"
   id="svg8"
   version="1.1"
   viewBox="0 0 210 210.00001"
   height="793.70081"
   width="793.70081">
  <defs
     id="defs2" />
  <sodipodi:namedview
     units="px"
     inkscape:window-maximized="0"
     inkscape:window-y="379"
     inkscape:window-x="5222"
     inkscape:window-height="1228"
     inkscape:window-width="2249"
     showgrid="false"
     inkscape:document-rotation="0"
     inkscape:current-layer="layer1"
     inkscape:document-units="px"
     inkscape:cy="515.13895"
     inkscape:cx="796.39456"
     inkscape:zoom="0.49497475"
     inkscape:pageshadow="2"
     inkscape:pageopacity="0.0"
     borderopacity="1.0"
     bordercolor="#666666"
     pagecolor="#ffffff"
     id="base" />
  <metadata
     id="metadata5">
    <rdf:RDF>
      <cc:Work
         rdf:about="">
        <dc:format>image/svg+xml</dc:format>
        <dc:type
           rdf:resource="http://purl.org/dc/dcmitype/StillImage" />
        <dc:title></dc:title>
      </cc:Work>
    </rdf:RDF>
  </metadata>
  <g
     id="layer1"
     inkscape:groupmode="layer"
     inkscape:label="レイヤー 1">
    <g
       transform="matrix(0.88715337,0,0,0.88715337,2.9219295,2.1991434)"
       id="g24">
      <path
         d="m 221.2,145.479 c -27.178,1.942 -33.245,-11.405 -38.583,-26.935 -3.864,-11.24 -8.25,-25.398 -10.224,-32.22 12.49,-19.179 26.968,-42.207 48.524,-76.25 H 180.584 C 173.413,21.318 166.33,32.704 159.32,43.84 157.318,38.235 154.56,32.2 151.356,27.07 142.074,12.688 127.476,2.788 105.72,4.12 76.96,5.882 55.235,19.664 37.699,37.2 21.619,53.277 5.936,76.76 4.152,103.358 c -2.387,35.606 23.625,56 53.114,58.237 23.304,1.769 40.755,-4.426 55.443,-12.113 9.97,-5.217 31.185,-22.894 37.534,-30.775 4.712,21.849 16.872,42.787 44.264,42.787 16.977,0 27.73,-9.32 33.512,-16.522 -2.076,0.16 -4.332,0.328 -6.82,0.506 z M 90.346,132.245 c -6.291,4.558 -14.36,9.4 -22.83,10.716 -21.063,3.27 -30.352,-13.083 -28.886,-34.944 1.144,-17.068 7.915,-32.88 15.84,-46.59 8.124,-14.053 17.609,-26.505 28.422,-34.01 3.86,-2.683 9.66,-5.878 17.704,-6.524 19.358,-1.554 26.482,19.39 31.407,36.94 2.3,8.236 3.849,16.614 4.596,21.02 -5.52,8.103 -22.655,36.294 -46.253,53.392 z"
         fill="#e94e09"
         id="path10" />
      <path
         d="m -55.88,246.84 h -27 m 27,-325.78 h -27"
         fill="none"
         stroke="#ffffff"
         stroke-width="0.5"
         id="path12" />
    </g>
  </g>
</svg>
