<?xml version="1.0" encoding="UTF-8" standalone="no"?>
<svg
   xmlns:dc="http://purl.org/dc/elements/1.1/"
   xmlns:cc="http://creativecommons.org/ns#"
   xmlns:rdf="http://www.w3.org/1999/02/22-rdf-syntax-ns#"
   xmlns:svg="http://www.w3.org/2000/svg"
   xmlns="http://www.w3.org/2000/svg"
   xmlns:sodipodi="http://sodipodi.sourceforge.net/DTD/sodipodi-0.dtd"
   xmlns:inkscape="http://www.inkscape.org/namespaces/inkscape"
   sodipodi:docname="描画.svg"
   inkscape:version="1.0 (4035a4fb49, 2020-05-01)"
   id="svg8"
   version="1.1"
   viewBox="0 0 210 210.00001"
   height="793.70081"
   width="793.70081">
  <defs
     id="defs2" />
  <sodipodi:namedview
     units="px"
     inkscape:window-maximized="0"
     inkscape:window-y="417"
     inkscape:window-x="4735"
     inkscape:window-height="1228"
     inkscape:window-width="2249"
     showgrid="false"
     inkscape:document-rotation="0"
     inkscape:current-layer="layer1"
     inkscape:document-units="px"
     inkscape:cy="595.95115"
     inkscape:cx="796.39456"
     inkscape:zoom="0.49497475"
     inkscape:pageshadow="2"
     inkscape:pageopacity="0.0"
     borderopacity="1.0"
     bordercolor="#666666"
     pagecolor="#ffffff"
     id="base" />
  <metadata
     id="metadata5">
    <rdf:RDF>
      <cc:Work
         rdf:about="">
        <dc:format>image/svg+xml</dc:format>
        <dc:type
           rdf:resource="http://purl.org/dc/dcmitype/StillImage" />
        <dc:title></dc:title>
      </cc:Work>
    </rdf:RDF>
  </metadata>
  <g
     id="layer1"
     inkscape:groupmode="layer"
     inkscape:label="レイヤー 1">
    <g
       transform="matrix(1.1049205,0,0,1.1049205,-0.38402589,-81.633962)"
       fill-rule="evenodd"
       clip-rule="evenodd"
       id="g35">
      <path
         fill="#ffffff"
         d="M 0,0 H 192.756 V 192.756 H 0 Z"
         id="path27" />
      <path
         d="m 178.113,90.094 h 6.139 v 2.062 h -6.139 v 8.665 c 0,2.336 6.139,1.668 6.139,1.668 v 2.066 c 0,0 -9.205,0.641 -9.205,-3.1 v -9.299 h -4.092 v -2.062 h 4.096 v -6.199 h 3.062 z m -52.478,14.467 c 2.4,0 4.346,-1.965 4.346,-4.393 0,-2.424 -1.945,-4.389 -4.346,-4.389 h -8.182 a 1.799,1.799 0 0 1 -1.787,-1.809 c 0,-0.999 0.799,-1.809 1.787,-1.809 h 11.76 v -2.067 h -13.037 c -2.258,0 -4.09,1.851 -4.09,4.135 0,2.281 1.832,4.13 4.09,4.13 h 8.182 c 1.129,0 2.043,0.926 2.043,2.068 a 2.054,2.054 0 0 1 -2.043,2.066 h -12.271 v 2.066 h 13.548 z m 18.873,-14.459 v 0.004 h -8.906 v -6.563 h -3.066 v 21.018 h 3.066 V 92.17 l 7.883,-0.002 c 2.047,0 3.068,1.452 3.068,2.068 v 10.325 l 3.066,0.01 V 93.719 c 0,-1.507 -2.041,-3.617 -5.111,-3.617 z m 17.23,1.988 c -3.389,0 -6.137,2.345 -6.137,5.238 0,2.893 2.748,5.236 6.137,5.236 3.387,0 6.135,-2.344 6.135,-5.236 0,-2.893 -2.748,-5.238 -6.135,-5.238 z m 0,-2.255 c 5.365,0 9.717,3.356 9.717,7.493 0,4.137 -4.352,7.492 -9.717,7.492 -5.367,0 -9.717,-3.355 -9.717,-7.492 0,-4.137 4.35,-7.493 9.717,-7.493 z"
         stroke="#000000"
         stroke-width="0.313"
         stroke-miterlimit="2.613"
         id="path29" />
      <path
         d="m 104.303,98.488 h 6.131 V 96.42 h -6.131 z"
         id="path31" />
      <path
         d="m 46.429,104.561 h -7.158 c -4.092,0 -6.121,-2.066 -6.121,-4.133 V 89.576 h 3.052 l 0.026,9.739 c 0,1.629 2.019,3.18 4.065,3.18 l 6.135,0.004 V 89.581 h 3.052 v 15.501 c 0,2.066 -2.029,4.131 -6.121,4.131 H 33.103 v -2.064 h 9.234 c 2.046,-0.001 4.092,-0.96 4.092,-2.588 z M 79.497,92.162 h 7.67 v -2.067 h -8.693 c -3.954,0 -7.159,3.24 -7.159,7.234 0,3.992 3.205,7.232 7.159,7.232 h 8.693 v -2.066 h -7.67 c -2.475,0 -4.602,-2.066 -4.602,-4.135 H 87.167 V 96.296 H 74.895 c 0,-2.067 2.127,-4.134 4.602,-4.134 z m 10.226,12.399 h 3.068 V 92.162 h 4.09 c 2.045,0 3.069,1.452 3.069,2.067 v 2.066 h 3.066 v -2.583 c 0,-1.507 -2.043,-3.617 -5.113,-3.617 -1.018,0 0,0 0,0 h -8.18 z m -68.946,-18.6 c -6.434,0 -8.181,3.701 -8.181,8.268 0,4.564 1.748,7.748 8.181,7.748 h 10.226 v 2.584 H 18.731 c -7.562,0 -10.227,-4.625 -10.227,-10.332 0,-5.709 2.666,-10.334 10.227,-10.334 h 12.272 v 2.066 z m 34.738,16.533 V 92.162 h 5.112 c 2.825,0 5.114,2.314 5.114,5.167 0,2.854 -2.289,5.166 -5.114,5.166 h -5.112 z m 6.648,2.067 c 3.953,0 7.158,-3.24 7.158,-7.232 0,-3.994 -3.205,-7.234 -7.158,-7.234 h -6.648 v -6.551 h -3.069 v 21.018 h 9.717 z"
         stroke="#000000"
         stroke-width="0.313"
         stroke-linejoin="round"
         stroke-miterlimit="2.613"
         id="path33" />
    </g>
  </g>
</svg>
